<svg width="24" height="24" viewBox="0 0 24 24" fill="none" xmlns="http://www.w3.org/2000/svg">
<path d="M17.7628 8.42177L13 9.96709V8.5L17.7628 6.78846V8.42177Z" fill="#BFA87E"/>
<path d="M17.7628 12L13 13.5453V12.0782L17.7628 10.3667V12Z" fill="#BFA87E"/>
<path d="M13 17.5453L17.7628 16V14.3667L13 16.0782V17.5453Z" fill="#BFA87E"/>
<path fill-rule="evenodd" clip-rule="evenodd" d="M4.22371 2.28415C3.99598 2.21298 3.74798 2.25441 3.55575 2.39574C3.36352 2.53706 3.25 2.76142 3.25 3.00001V18.5C3.25 18.828 3.46319 19.118 3.77629 19.2159L11.7763 21.7159C11.922 21.7614 12.078 21.7614 12.2237 21.7159L20.2237 19.2159C20.5368 19.118 20.75 18.828 20.75 18.5V3.00001C20.75 2.76142 20.6365 2.53706 20.4443 2.39574C20.252 2.25441 20.004 2.21298 19.7763 2.28415L12 4.71424L4.22371 2.28415ZM4.75 17.9486V4.02015L11.7763 6.21587C11.922 6.26139 12.078 6.26139 12.2237 6.21587L19.25 4.02015V17.9486L12 20.2142L4.75 17.9486Z" fill="#BFA87E"/>
</svg>
