<svg width="24" height="24" viewBox="0 0 24 24" fill="none" xmlns="http://www.w3.org/2000/svg">
<path fill-rule="evenodd" clip-rule="evenodd" d="M9.75 3.75C9.61193 3.75 9.5 3.86193 9.5 4V5.75H14.5V4C14.5 3.86193 14.3881 3.75 14.25 3.75H9.75ZM16 5.75V4C16 3.0335 15.2165 2.25 14.25 2.25H9.75C8.7835 2.25 8 3.0335 8 4V5.75H6V3.5H4.5V6.32295L3 9.32295V21.5H4.5V20.25H14V21.5H15.5V20.25H19.5V21.5H21V9.32295L19.5 6.32295V3.5H18V5.75H16ZM18.2865 7.25H5.71353L4.96353 8.75H19.0365L18.2865 7.25ZM19.5 10.25H15.5V11.25H19.5V10.25ZM19.5 12.75H15.5V13.75H19.5V12.75ZM19.5 15.25H15.5V16H19.5V15.25ZM19.5 17.5H15.5V18.75H19.5V17.5ZM14 18.75V17.5H4.5V18.75H14ZM4.5 16H14V12.75H4.5V16ZM4.5 11.25H14V10.25H4.5V11.25Z" fill="#BFA87E"/>
</svg>
