<svg width="24" height="24" viewBox="0 0 24 24" fill="none" xmlns="http://www.w3.org/2000/svg">
<path fill-rule="evenodd" clip-rule="evenodd" d="M14.25 9.45015C13.875 9.64186 13.4501 9.75 13 9.75H12V8.25H13C13.6904 8.25 14.25 7.69036 14.25 7V6.45015C13.875 6.64186 13.4501 6.75 13 6.75H12V5.25H13C13.6904 5.25 14.25 4.69036 14.25 4V3H15.75V4C15.75 4.69036 16.3096 5.25 17 5.25H18V6.75H17C16.5499 6.75 16.125 6.64186 15.75 6.45015V7C15.75 7.69036 16.3096 8.25 17 8.25H18V9.75H17C16.5499 9.75 16.125 9.64186 15.75 9.45015V11.25H15.9151C16.5474 11.25 17.1304 11.591 17.4404 12.142L20.8154 18.142C21.4716 19.3086 20.6286 20.75 19.2901 20.75H4.70982C3.37137 20.75 2.52838 19.3086 3.18457 18.142L6.55957 12.142C6.86952 11.591 7.45259 11.25 8.08482 11.25H14.25V9.45015ZM12.4386 19.25L8.78237 12.75H15.9151C16.0054 12.75 16.0887 12.7987 16.133 12.8774L19.508 18.8774C19.6018 19.0441 19.4813 19.25 19.2901 19.25H12.4386ZM8.25 14.8632L10.7176 19.25H8.25V14.8632ZM6.75 14.8631V19.25H4.70982C4.51862 19.25 4.39819 19.0441 4.49193 18.8774L6.75 14.8631Z" fill="#BFA87E"/>
<path fill-rule="evenodd" clip-rule="evenodd" d="M7 10C8.65685 10 10 8.65685 10 7C10 5.34315 8.65685 4 7 4C5.34315 4 4 5.34315 4 7C4 8.65685 5.34315 10 7 10ZM7 8.5C7.82843 8.5 8.5 7.82843 8.5 7C8.5 6.17157 7.82843 5.5 7 5.5C6.17157 5.5 5.5 6.17157 5.5 7C5.5 7.82843 6.17157 8.5 7 8.5Z" fill="#BFA87E"/>
</svg>
