<svg width="24" height="24" viewBox="0 0 24 24" fill="none" xmlns="http://www.w3.org/2000/svg">
<path fill-rule="evenodd" clip-rule="evenodd" d="M8.25 11C8.25 9.18578 9.53832 7.67247 11.25 7.32501V6H12.75V7.32501C14.4617 7.67247 15.75 9.18578 15.75 11V11.25H18.5V12.75H12.75V20.5H11.25V12.75H5.5V11.25H8.25V11ZM9.75 11.25H14.25V11C14.25 9.75736 13.2426 8.75 12 8.75C10.7574 8.75 9.75 9.75736 9.75 11V11.25Z" fill="#BFA87E"/>
<path d="M2.75 7.5V20.5H4.25V16.25H7.5C7.63807 16.25 7.75 16.3619 7.75 16.5V20.5H9.25V16.5C9.25 15.5335 8.4665 14.75 7.5 14.75H4.25V7.5H2.75Z" fill="#BFA87E"/>
<path d="M21.25 7.5V20.5H19.75V16.25H16.5C16.3619 16.25 16.25 16.3619 16.25 16.5V20.5H14.75V16.5C14.75 15.5335 15.5335 14.75 16.5 14.75H19.75V7.5H21.25Z" fill="#BFA87E"/>
</svg>
