<svg width="24" height="24" viewBox="0 0 24 24" fill="none" xmlns="http://www.w3.org/2000/svg">
<path fill-rule="evenodd" clip-rule="evenodd" d="M12 11C13.1046 11 14 10.1046 14 9C14 7.89543 13.1046 7 12 7C10.8954 7 10 7.89543 10 9C10 10.1046 10.8954 11 12 11ZM12 9.5C12.2761 9.5 12.5 9.27614 12.5 9C12.5 8.72386 12.2761 8.5 12 8.5C11.7239 8.5 11.5 8.72386 11.5 9C11.5 9.27614 11.7239 9.5 12 9.5Z" fill="#BFA87E"/>
<path fill-rule="evenodd" clip-rule="evenodd" d="M5.75006 10.8106V15.25H4C3.58579 15.25 3.25 15.5858 3.25 16C3.25 16.8645 3.5081 17.6687 3.95145 18.3397C3.68723 18.4688 3.43726 18.6353 3.21089 18.8404C2.92039 19.1035 2.526 19.2474 2.11328 19.2495C2.07535 19.2495 2.03757 19.2483 2 19.2459V20.9155C2.02048 20.9162 2.02643 20.916 2.03498 20.9158C2.04093 20.9157 2.04814 20.9155 2.06237 20.9155H2.10411C2.89426 20.9155 3.70236 20.6431 4.32934 20.0751C4.62199 19.8101 5.02008 19.666 5.43613 19.666C5.85217 19.666 6.25026 19.8101 6.54291 20.0751C7.16989 20.6431 7.97799 20.9155 8.76814 20.9155C9.55828 20.9155 10.3664 20.6431 10.9934 20.0751C11.286 19.8101 11.6841 19.666 12.1002 19.666C12.5162 19.666 12.9143 19.8101 13.2069 20.0751C13.8339 20.6431 14.642 20.9155 15.4322 20.9155C16.2223 20.9155 17.0304 20.6431 17.6574 20.0751C17.95 19.8101 18.3481 19.666 18.7642 19.666C19.1802 19.666 19.5783 19.8101 19.871 20.0751C20.4704 20.6181 21.2355 20.891 21.9921 20.9139V19.2465C21.6142 19.2245 21.2575 19.0833 20.9894 18.8404C20.7193 18.5957 20.4156 18.4059 20.0942 18.2691C20.5096 17.6125 20.75 16.8343 20.75 16C20.75 15.5858 20.4142 15.25 20 15.25H18.7501V11.3106L19.4697 12.0303L20.5304 10.9696L18.7501 9.18931V5.49997H17.2501V7.68931L13.2375 3.67675C12.5541 2.99333 11.446 2.99333 10.7626 3.67675L3.46973 10.9696L4.53039 12.0303L5.75006 10.8106ZM12.1768 4.73741C12.0792 4.63978 11.9209 4.63978 11.8233 4.73741L7.25006 9.31063V15.25H9.75V13C9.75 12.0335 10.5335 11.25 11.5 11.25H12.5C13.4665 11.25 14.25 12.0335 14.25 13V15.25H17.2501V9.81063L12.1768 4.73741ZM12.75 15.25V13C12.75 12.8619 12.6381 12.75 12.5 12.75H11.5C11.3619 12.75 11.25 12.8619 11.25 13V15.25H12.75ZM18.3622 18.0236C18.7307 17.6842 19.0063 17.2456 19.1465 16.75H4.85352C4.99111 17.2365 5.25922 17.6681 5.61762 18.0048C6.3488 18.0434 7.08232 18.3159 7.66136 18.8404C7.95401 19.1055 8.3521 19.2495 8.76814 19.2495C9.18418 19.2495 9.58227 19.1055 9.87492 18.8404C10.5019 18.2725 11.31 18 12.1002 18C12.8903 18 13.6984 18.2725 14.3254 18.8404C14.618 19.1055 15.0161 19.2495 15.4322 19.2495C15.8482 19.2495 16.2463 19.1055 16.5389 18.8404C17.0598 18.3686 17.7056 18.1007 18.3622 18.0236Z" fill="#BFA87E"/>
</svg>
