<svg width="24" height="24" viewBox="0 0 24 24" fill="none" xmlns="http://www.w3.org/2000/svg">
<path fill-rule="evenodd" clip-rule="evenodd" d="M11.8232 4.23741C11.9209 4.13978 12.0791 4.13978 12.1768 4.23741L18.75 10.8106V19C18.75 19.138 18.6381 19.25 18.5 19.25H16.75V18.5C16.75 16.9098 15.8767 15.5236 14.5835 14.7949C14.9989 14.3132 15.25 13.6859 15.25 13V12.5C15.25 10.705 13.7949 9.24997 12 9.24997C10.2051 9.24997 8.75 10.705 8.75 12.5V13C8.75 13.6859 9.00113 14.3132 9.41647 14.7949C8.1233 15.5236 7.25 16.9098 7.25 18.5V19.25H5.64012C5.50204 19.25 5.39012 19.138 5.39012 19V10.6705L11.8232 4.23741ZM8.75 19.25H15.25V18.5C15.25 16.9812 14.0188 15.75 12.5 15.75V14.25C13.1904 14.25 13.75 13.6903 13.75 13V12.5C13.75 11.5335 12.9665 10.75 12 10.75C11.0335 10.75 10.25 11.5335 10.25 12.5V13C10.25 13.6903 10.8096 14.25 11.5 14.25V15.75C9.98121 15.75 8.75 16.9812 8.75 18.5V19.25ZM20.4697 12.5303L20.25 12.3106V19C20.25 19.9665 19.4665 20.75 18.5 20.75H5.64012C4.67362 20.75 3.89012 19.9665 3.89012 19V12.1705L3.53033 12.5303L2.46967 11.4696L4.10979 9.82952L10.7626 3.17675C11.446 2.49333 12.554 2.49333 13.2374 3.17675L20.0303 9.96964L21.5303 11.4696L20.4697 12.5303Z" fill="#BFA87E"/>
</svg>
