<svg width="24" height="24" viewBox="0 0 24 24" fill="none" xmlns="http://www.w3.org/2000/svg">
<path fill-rule="evenodd" clip-rule="evenodd" d="M4.25 6C4.25 5.0335 5.0335 4.25 6 4.25H18C18.9665 4.25 19.75 5.0335 19.75 6V6.75H20C20.9665 6.75 21.75 7.5335 21.75 8.5V19C21.75 19.9665 20.9665 20.75 20 20.75H4C3.0335 20.75 2.25 19.9665 2.25 19V8.5C2.25 7.5335 3.0335 6.75 4 6.75H4.25V6ZM6 5.75C5.86193 5.75 5.75 5.86193 5.75 6V10.75H8.25V8.5C8.25 7.5335 9.0335 6.75 10 6.75H14C14.9665 6.75 15.75 7.5335 15.75 8.5V10.75H18.25V6C18.25 5.86193 18.1381 5.75 18 5.75H6ZM14.25 10.75H9.75V8.5C9.75 8.36193 9.86193 8.25 10 8.25H14C14.1381 8.25 14.25 8.36193 14.25 8.5V10.75ZM4.25 8.25H4C3.86193 8.25 3.75 8.36193 3.75 8.5V12.0229L4.25 11.2729V8.25ZM5.40139 12.25L4.06805 14.25H20.2395L18.6395 12.25H5.40139ZM19.75 11.2369L20.25 11.8619V8.5C20.25 8.36193 20.1381 8.25 20 8.25H19.75V11.2369ZM3.75 19V15.75H20.25V19C20.25 19.1381 20.1381 19.25 20 19.25H4C3.86193 19.25 3.75 19.1381 3.75 19Z" fill="#BFA87E"/>
</svg>
